<svg width="152" height="70" viewBox="0 0 152 70" fill="none" xmlns="http://www.w3.org/2000/svg">
<rect y="8" width="54" height="54" rx="5" fill="#23D18C"/>
<path d="M61.264 24.28H68.032V28.312H68.416C69.344 26.68 70.256 25.48 71.152 24.712C72.08 23.944 73.232 23.56 74.608 23.56C75.184 23.56 75.664 23.624 76.048 23.752L75.328 31.048C74.496 30.824 73.824 30.712 73.312 30.712C72.576 30.712 71.92 30.856 71.344 31.144C70.8 31.432 70.304 31.816 69.856 32.296C69.44 32.776 68.832 33.512 68.032 34.504V49H61.264V24.28ZM88.4999 49.672C85.8759 49.672 83.8119 48.872 82.3079 47.272C80.8039 45.672 80.0519 43.48 80.0519 40.696V24.28H86.8199V39.592C86.8199 40.904 87.1399 41.928 87.7799 42.664C88.4199 43.368 89.2839 43.72 90.3719 43.72C91.4599 43.72 92.4999 43.368 93.4919 42.664C94.5159 41.96 95.3639 41.016 96.0359 39.832V24.28H102.804V49H96.0359V45.736C95.1079 46.984 94.0359 47.96 92.8199 48.664C91.6359 49.336 90.1959 49.672 88.4999 49.672ZM107.922 43.192H112.29V19.72H108.162V13.96H119.058V43.192H123.426V49H107.922V43.192ZM138.972 49.72C134.972 49.72 131.82 48.568 129.516 46.264C127.244 43.96 126.108 40.76 126.108 36.664C126.108 34.008 126.604 31.704 127.596 29.752C128.588 27.768 129.98 26.248 131.772 25.192C133.596 24.136 135.724 23.608 138.156 23.608C141.74 23.608 144.492 24.76 146.412 27.064C148.332 29.368 149.292 32.696 149.292 37.048C149.292 37.784 149.276 38.328 149.244 38.68H132.924C133.244 40.376 133.98 41.672 135.132 42.568C136.284 43.432 137.836 43.864 139.788 43.864C140.972 43.864 142.204 43.72 143.484 43.432C144.764 43.112 145.884 42.696 146.844 42.184L147.948 47.608C146.668 48.28 145.244 48.792 143.676 49.144C142.14 49.528 140.572 49.72 138.972 49.72ZM142.812 33.592C142.716 32.216 142.236 31.128 141.372 30.328C140.508 29.496 139.356 29.08 137.916 29.08C136.54 29.08 135.404 29.48 134.508 30.28C133.644 31.08 133.1 32.184 132.876 33.592H142.812Z" fill="#1F2630"/>
<path d="M30.184 51.12C26.632 51.12 23.56 50.496 20.968 49.248C18.408 47.968 16.44 46.144 15.064 43.776C13.688 41.408 13 38.592 13 35.328C13 31.904 13.72 28.88 15.16 26.256C16.632 23.632 18.68 21.6 21.304 20.16C23.96 18.72 27.016 18 30.472 18C32.456 18 34.328 18.224 36.088 18.672C37.88 19.12 39.464 19.76 40.84 20.592L39.16 26.352C37.912 25.584 36.52 24.992 34.984 24.576C33.448 24.128 31.944 23.904 30.472 23.904C28.36 23.904 26.488 24.368 24.856 25.296C23.256 26.192 22.008 27.472 21.112 29.136C20.248 30.768 19.816 32.672 19.816 34.848C19.816 38.048 20.776 40.576 22.696 42.432C24.648 44.256 27.304 45.168 30.664 45.168C32.008 45.168 33.256 45.072 34.408 44.88V38.256H30.376V32.64H40.792V49.248C37.496 50.496 33.96 51.12 30.184 51.12Z" fill="white"/>
</svg>
